# xmcd
#
# Track frame offsets: 
#        150
#        19665
#        38125
#        55930
#        73922
#        90967
#        123747
#        142892
#        163832
#        182655
#        201137
#        223315
#        242535
#
# Disc length: 3483 seconds
#
# Revision: 2
# Processed by: cddbd v1.5.2PL0 Copyright (c) Steve Scherf et al.
# Submitted via: ExactAudioCopy v0.99pb5
#
DISCID=ba0d990d
DTITLE=Eric Burdon and The War - The Best Of
DYEAR=1995
DGENRE=Blues
TTITLE0=Magic Mountain
TTITLE1=Spill The Wine
TTITLE2=Tobacco Road
TTITLE3=Mother Earth
TTITLE4=Love Is All Around
TTITLE5=Home Dream
TTITLE6=Bare Back Ride
TTITLE7=Nights In White Satin
TTITLE8=Beautiful New Born Child
TTITLE9=Paint It Black
TTITLE10=They Can't Take Away Our Music
TTITLE11=Gun
TTITLE12=Home Cookin'
EXTD=
EXTT0=
EXTT1=
EXTT2=
EXTT3=
EXTT4=
EXTT5=
EXTT6=
EXTT7=
EXTT8=
EXTT9=
EXTT10=
EXTT11=
EXTT12=
PLAYORDER=
